#!OML:ASF F:\VICON\USERDATA\INSTALL\rory3\rory3.ASF
:FULLY-SPECIFIED
:DEGREES
142
root -0.8206914865227144 17.332218638941704 27.048783458496914 3.3388256967410714 -2.376282278216041 -1.7064226736268815
lfemur -28.7559987921777 8.908227426202838 -18.236015661200415
ltibia 89.6181623285851
lfoot 3.2988684680635254 -10.273651940506285
ltoes -12.75234279936961
rfemur -10.539639958317384 6.771941808277054 29.362337503683122
rtibia 95.99306871678007
rfoot 2.570472927257219 -9.45000440730881
rtoes 8.126431245262694
lowerback 15.374435614638822 2.1953364279830065 1.9398413259278513
upperback -0.17568395834430017 3.346895337088347 0.4165387061692737
thorax -9.317589324443047 1.605472332440454 -1.1146918198433076
lowerneck -20.570087569605327 -4.543544696913285 -1.559899759986788
upperneck 12.631138078231134 -6.452499801349965 4.150950458286986
head 7.7169539830486436 -2.6139020992450472 0.7630649784786412
lclavicle -2.0490533145228767e-17 4.2580992004365593e-16
lhumerus -48.26772138151496 -8.310279445707787 92.17048995189981
lradius 100.58801778129904
lwrist 35.300713341543855
lhand -28.46267071813418 5.856929831922531
lfingers 7.125019999999998
lthumb -1.1645844892527957 35.50827527706525
rclavicle -2.0490533357991157e-17 4.258099199027519e-16
rhumerus -43.37392592612249 12.50684702737426 -94.9324413878348
rradius 101.54874444742968
rwrist -19.839482061125434
rhand -18.766135939735726 40.725721225535615
rfingers 7.125019999999998
rthumb 6.437180080265138 11.526096091034123
143
root -0.8285644601531861 17.368307738724212 27.311757869097217 3.398638261186019 -2.440067212818787 -1.8066753337433112
lfemur -29.28295302451116 8.946865698497037 -18.236576420656956
ltibia 89.32673709805542
lfoot 3.971666007229925 -10.687073669752893
ltoes -11.411440738400833
rfemur -10.248244823528417 6.89731553381721 29.40515780868206
rtibia 96.18067651853505
rfoot 3.0580007195880174 -9.541954711750511
rtoes 7.419660363473421
lowerback 15.364493126977768 2.207173858785683 2.0117953527201693
upperback -0.19360925937806883 3.369024544960489 0.5160749108394951
thorax -9.32134555760192 1.6187597261466031 -1.1188958858415892
lowerneck -20.412869229483775 -4.472984822053083 -1.506142184279526
upperneck 12.780604171546086 -6.3551741219662805 4.056722449767313
head 7.759711634674454 -2.5813791776976873 0.7381494195901375
lclavicle -2.0490533147799828e-17 4.258099200419415e-16
lhumerus -48.66403735817924 -8.175737429551255 92.16413731193829
lradius 100.55837055896428
lwrist 35.403688050625306
lhand -28.024241872744454 6.119813441101636
lfingers 7.125019999999998
lthumb -1.0938580637460384 35.342515576174186
rclavicle -2.0490533360190652e-17 4.258099199012207e-16
rhumerus -43.64234698518151 12.556928120737993 -94.91681592430416
rradius 101.81388656665727
rwrist -20.29465111546986
rhand -18.749208417698163 41.177432175187064
rfingers 7.125019999999998
rthumb 6.425965224456613 12.023838215412825
144
root -0.8496377054694753 17.403895888538727 27.397267791245632 3.434727738347511 -2.493277716404835 -1.8585831901337035
lfemur -29.76791073561955 8.949568601404724 -18.314811880953563
ltibia 88.851875827675
lfoot 3.2820730902304236 -11.48196521911763
ltoes -12.549561065206573
rfemur -9.962254582065869 7.035213493477261 29.374219816083293
rtibia 96.33742827915837
rfoot 3.113030837236358 -9.832135789971684
rtoes 6.859207349485206
lowerback 15.407256177595288 2.2241521968851483 2.019100790990591
upperback -0.22404537689273568 3.4264093786724166 0.6392857045025926
thorax -9.388596158512234 1.6331051230963274 -1.1235576328232353
lowerneck -20.268155385863317 -4.458975221482818 -1.5009417237013607
upperneck 12.957276917255546 -6.329029427566545 3.984200493898059
head 7.826215887132201 -2.568987322971318 0.7172779608381672
lclavicle -2.0490533145316556e-17 4.258099200437929e-16
lhumerus -49.193135439048326 -8.05208628661902 92.18663738407857
lradius 100.52499273988765
lwrist 35.63820398822988
lhand -27.726811381484318 6.1426154965510715
lfingers 7.125019999999998
lthumb -0.8840835266603748 35.17207371696018
rclavicle -2.0490533358177735e-17 4.258099199028342e-16
rhumerus -43.950913165972 12.623705885479692 -94.88866340387905
rradius 102.045277996548
rwrist -20.653334887906695
rhand -18.790221433287254 41.684188478084344
rfingers 7.125019999999998
rthumb 6.3778981401765495 12.57338420014068
145
root -0.8569301605725905 17.4415469524112 27.581227072010215 3.4607682317782893 -2.6138257610161784 -1.9105121339911293
lfemur -30.08503143182385 8.985735714192131 -18.412688806862267
ltibia 88.29175514351124
lfoot 3.9868444266411807 -11.97379510295774
ltoes -11.981851213772456
rfemur -9.638886607037437 7.109372170519547 29.356146484240785
rtibia 96.5009784927867
rfoot 3.1223958993069685 -10.069395427638213
rtoes 5.597983079776727
lowerback 15.392701494352108 2.255143713606664 2.057161275184655
upperback -0.16873804650371438 3.4678392859503555 0.7383677603707133
thorax -9.307958907852798 1.6586281329772075 -1.0955326155659033
lowerneck -20.328473313678433 -4.435488808149926 -1.4678056268673638
upperneck 13.216214280896137 -6.305063860364707 3.9002475217945682
head 7.934801865102002 -2.5627457816452095 0.6900829978134815
lclavicle -2.0490533157452007e-17 4.2580992003614755e-16
lhumerus -49.40352759483748 -7.947034063055138 92.1338208291551
lradius 100.25266066324365
lwrist 35.6516363534439
lhand -27.213248117574672 6.113193655056352
lfingers 7.125019999999998
lthumb -0.5886601735305308 34.705942819164214
rclavicle -2.0490533354605076e-17 4.2580991990523323e-16
rhumerus -44.20596598121375 12.710675481455151 -94.84945214753209
rradius 102.2494370210409
rwrist -20.904228744724477
rhand -18.846775766849724 42.12880706946129
rfingers 7.125019999999998
rthumb 6.315672534451063 13.04643411615164
